# Blender v2.76 (sub 0) OBJ File: ''
# www.blender.org
mtllib enemy.mtl
o Sphere
v 0.330323 0.673958 -1.000000
v 0.255464 0.740256 -1.000000
v 0.050000 -0.000000 -1.000000
v -0.050000 -0.000000 -1.000000
v 0.330323 -0.673958 -1.000000
v 0.255464 -0.740256 -1.000000
v 1.000000 -0.950000 -1.000000
v 1.000000 -1.050000 -1.000000
v 0.526467 0.673958 -1.473533
v 0.473533 0.740256 -1.526467
v 0.328247 -0.000000 -1.671753
v 0.257539 -0.000000 -1.742461
v 0.526467 -0.673958 -1.473533
v 0.473533 -0.740256 -1.526467
v 1.000000 0.673958 -1.669677
v 1.000000 0.740256 -1.744536
v 1.000000 -0.000000 -1.950000
v 1.000000 -0.000000 -2.050000
v 1.000000 -0.673958 -1.669677
v 1.000000 -0.740256 -1.744536
v 1.473533 0.673958 -1.473533
v 1.526467 0.740256 -1.526467
v 1.671753 -0.000000 -1.671753
v 1.742461 -0.000000 -1.742461
v 1.473533 -0.673958 -1.473533
v 1.526467 -0.740256 -1.526467
v 1.669677 0.673958 -1.000000
v 1.744536 0.740256 -1.000000
v 1.950000 -0.000000 -1.000000
v 2.050000 -0.000000 -1.000000
v 1.669677 -0.673958 -1.000000
v 1.744536 -0.740256 -1.000000
v 1.473533 0.673958 -0.526467
v 1.526467 0.740256 -0.473533
v 1.671753 -0.000000 -0.328247
v 1.742461 -0.000000 -0.257539
v 1.473533 -0.673958 -0.526467
v 1.526467 -0.740256 -0.473533
v 1.000000 0.673958 -0.330323
v 1.000000 0.740256 -0.255464
v 1.000000 -0.000000 -0.050000
v 1.000000 -0.000000 0.050000
v 1.000000 -0.673958 -0.330323
v 1.000000 -0.740256 -0.255464
v 1.000000 0.950000 -1.000000
v 1.000000 1.050000 -1.000000
v 0.526467 0.673958 -0.526467
v 0.473533 0.740256 -0.473533
v 0.328248 -0.000000 -0.328248
v 0.257539 -0.000000 -0.257539
v 0.526467 -0.673958 -0.526467
v 0.473533 -0.740256 -0.473533
v 0.038685 0.046697 -1.046697
v 0.292893 0.660409 -1.046697
v 0.466980 0.660409 -1.466980
v 0.287228 0.046697 -1.646732
v 0.292893 -0.660409 -1.046697
v 0.038685 -0.046697 -1.046697
v 0.287228 -0.046697 -1.646732
v 0.466980 -0.660409 -1.466980
v 0.353268 0.046697 -1.712772
v 0.533020 0.660409 -1.533020
v 0.953303 0.660409 -1.707107
v 0.953303 0.046697 -1.961315
v 0.533020 -0.660409 -1.533020
v 0.353268 -0.046697 -1.712772
v 0.953303 -0.046697 -1.961315
v 0.953303 -0.660409 -1.707107
v 1.046697 0.046697 -1.961315
v 1.046697 0.660409 -1.707107
v 1.466980 0.660409 -1.533020
v 1.646732 0.046697 -1.712772
v 1.046697 -0.660409 -1.707107
v 1.046697 -0.046697 -1.961315
v 1.646732 -0.046697 -1.712772
v 1.466980 -0.660409 -1.533020
v 1.712772 0.046697 -1.646732
v 1.533020 0.660409 -1.466980
v 1.707107 0.660409 -1.046697
v 1.961315 0.046697 -1.046697
v 1.533020 -0.660409 -1.466980
v 1.712772 -0.046697 -1.646732
v 1.961315 -0.046697 -1.046697
v 1.707107 -0.660409 -1.046697
v 1.961315 0.046697 -0.953303
v 1.707107 0.660409 -0.953303
v 1.533020 0.660409 -0.533020
v 1.712772 0.046697 -0.353268
v 1.707107 -0.660409 -0.953303
v 1.961315 -0.046697 -0.953303
v 1.712772 -0.046697 -0.353268
v 1.533020 -0.660409 -0.533020
v 1.646732 0.046697 -0.287228
v 1.466980 0.660409 -0.466980
v 1.046697 0.660409 -0.292893
v 1.046697 0.046697 -0.038686
v 1.466980 -0.660409 -0.466980
v 1.646732 -0.046697 -0.287228
v 1.046697 -0.046697 -0.038686
v 1.046697 -0.660409 -0.292893
v 0.953303 0.046697 -0.038686
v 0.953303 0.660409 -0.292893
v 0.533020 0.660409 -0.466980
v 0.353268 0.046697 -0.287228
v 0.953303 -0.660409 -0.292893
v 0.953303 -0.046697 -0.038686
v 0.353268 -0.046697 -0.287228
v 0.533020 -0.660409 -0.466980
v 0.880778 -0.942144 -1.049383
v 0.362732 -0.727562 -1.049383
v 0.514464 -0.727562 -1.415697
v 0.362732 0.727562 -1.049383
v 0.880778 0.942144 -1.049383
v 0.514464 0.727562 -1.415697
v 0.584303 0.727562 -1.485536
v 0.950617 0.942144 -1.119222
v 0.950617 0.727562 -1.637268
v 0.950617 -0.942144 -1.119222
v 0.584303 -0.727562 -1.485536
v 0.950617 -0.727562 -1.637268
v 1.049384 -0.942144 -1.119222
v 1.049384 -0.727562 -1.637268
v 1.415697 -0.727562 -1.485536
v 1.049384 0.727562 -1.637268
v 1.049384 0.942144 -1.119222
v 1.415697 0.727562 -1.485536
v 1.119222 -0.942144 -1.049383
v 1.485536 -0.727562 -1.415697
v 1.637268 -0.727562 -1.049384
v 1.485536 0.727562 -1.415697
v 1.119222 0.942144 -1.049383
v 1.637268 0.727562 -1.049384
v 1.119222 -0.942144 -0.950617
v 1.637268 -0.727562 -0.950617
v 1.485536 -0.727562 -0.584303
v 1.637268 0.727562 -0.950617
v 1.119222 0.942144 -0.950616
v 1.485536 0.727562 -0.584303
v 1.049384 -0.942144 -0.880778
v 1.415697 -0.727562 -0.514464
v 1.049384 -0.727562 -0.362732
v 1.415697 0.727562 -0.514464
v 1.049384 0.942144 -0.880778
v 1.049384 0.727562 -0.362732
v 0.950617 0.727562 -0.362732
v 0.950617 0.942144 -0.880778
v 0.584303 0.727562 -0.514464
v 0.950617 -0.942144 -0.880778
v 0.950617 -0.727562 -0.362732
v 0.584303 -0.727562 -0.514464
v 0.466980 -0.660409 -0.533020
v 0.287228 -0.046697 -0.353268
v 0.038685 -0.046697 -0.953303
v 0.292893 -0.660409 -0.953303
v 0.514464 0.727562 -0.584303
v 0.880778 0.942144 -0.950616
v 0.362732 0.727562 -0.950617
v 0.880778 -0.942144 -0.950617
v 0.514464 -0.727562 -0.584303
v 0.362732 -0.727562 -0.950617
v 0.287228 0.046697 -0.353268
v 0.466980 0.660409 -0.533020
v 0.292893 0.660409 -0.953303
v 0.038685 0.046697 -0.953303
vn 0.785600 -0.326100 -0.525800
vn -0.541400 0.223800 -0.810500
vn 0.231100 -0.968200 0.095700
vn -0.904300 -0.204800 -0.374600
vn 0.183700 -0.326100 0.927300
vn -0.955900 0.223800 0.190300
vn 0.789900 0.518600 0.327200
vn -0.544200 0.808100 -0.225400
vn 0.785600 0.326100 -0.525800
vn -0.541400 -0.223800 -0.810500
vn 0.789900 -0.518600 0.327200
vn -0.544200 -0.808100 -0.225400
vn 0.183700 0.326100 0.927300
vn -0.955900 -0.223800 0.190300
vn 0.231100 0.968200 0.095700
vn -0.904300 0.204800 -0.374600
vn 0.927300 -0.326100 0.183700
vn 0.190300 0.223800 -0.955900
vn 0.095700 -0.968200 0.231100
vn -0.374600 -0.204800 -0.904300
vn -0.525800 -0.326100 0.785600
vn -0.810500 0.223800 -0.541400
vn 0.327200 0.518600 0.789900
vn -0.225400 0.808100 -0.544200
vn 0.927300 0.326100 0.183700
vn 0.190300 -0.223800 -0.955900
vn 0.327200 -0.518600 0.789900
vn -0.225400 -0.808100 -0.544200
vn -0.525800 0.326100 0.785600
vn -0.810500 -0.223800 -0.541400
vn 0.095700 0.968200 0.231100
vn -0.374600 0.204800 -0.904300
vn 0.525800 -0.326100 0.785600
vn 0.810500 0.223800 -0.541400
vn -0.095700 -0.968200 0.231100
vn 0.374600 -0.204800 -0.904300
vn -0.927300 -0.326100 0.183700
vn -0.190300 0.223800 -0.955900
vn -0.327200 0.518600 0.789900
vn 0.225400 0.808100 -0.544200
vn 0.525800 0.326100 0.785600
vn 0.810500 -0.223800 -0.541400
vn -0.327200 -0.518600 0.789900
vn 0.225400 -0.808100 -0.544200
vn -0.927300 0.326100 0.183700
vn -0.190300 -0.223800 -0.955900
vn -0.095700 0.968200 0.231100
vn 0.374600 0.204800 -0.904300
vn -0.183700 -0.326100 0.927300
vn 0.955900 0.223800 0.190300
vn -0.231100 -0.968200 0.095700
vn 0.904300 -0.204800 -0.374600
vn -0.785600 -0.326100 -0.525800
vn 0.541400 0.223800 -0.810500
vn -0.789900 0.518600 0.327200
vn 0.544200 0.808100 -0.225400
vn -0.183700 0.326100 0.927300
vn 0.955900 -0.223800 0.190300
vn -0.789900 -0.518600 0.327200
vn 0.544200 -0.808100 -0.225400
vn -0.785600 0.326100 -0.525800
vn 0.541400 -0.223800 -0.810500
vn -0.231100 0.968200 0.095700
vn 0.904300 0.204800 -0.374600
vn -0.785600 -0.326100 0.525800
vn 0.541400 0.223800 0.810500
vn -0.231100 -0.968200 -0.095700
vn 0.904300 -0.204800 0.374600
vn -0.183700 -0.326100 -0.927300
vn 0.955900 0.223800 -0.190300
vn -0.789900 0.518600 -0.327200
vn 0.544200 0.808100 0.225400
vn -0.785600 0.326100 0.525800
vn 0.541400 -0.223800 0.810500
vn -0.789900 -0.518600 -0.327200
vn 0.544200 -0.808100 0.225400
vn -0.183700 0.326100 -0.927300
vn 0.955900 -0.223800 -0.190300
vn -0.231100 0.968200 -0.095700
vn 0.904300 0.204800 0.374600
vn -0.927300 -0.326100 -0.183700
vn -0.190300 0.223800 0.955900
vn -0.095700 -0.968200 -0.231100
vn 0.374600 -0.204800 0.904300
vn 0.525800 -0.326100 -0.785600
vn 0.810500 0.223800 0.541400
vn -0.327200 0.518600 -0.789900
vn 0.225400 0.808100 0.544200
vn -0.927300 0.326100 -0.183700
vn -0.190300 -0.223800 0.955900
vn -0.327200 -0.518600 -0.789900
vn 0.225400 -0.808100 0.544200
vn 0.525800 0.326100 -0.785600
vn 0.810500 -0.223800 0.541400
vn -0.095700 0.968200 -0.231100
vn 0.374600 0.204800 0.904300
vn -0.525800 -0.326100 -0.785600
vn -0.810500 0.223800 0.541400
vn 0.095700 -0.968200 -0.231100
vn -0.374600 -0.204800 0.904300
vn 0.927300 -0.326100 -0.183700
vn 0.190300 0.223800 0.955900
vn 0.327200 0.518600 -0.789900
vn -0.225400 0.808100 0.544200
vn -0.525800 0.326100 -0.785600
vn -0.810500 -0.223800 0.541400
vn 0.327200 -0.518600 -0.789900
vn -0.225400 -0.808100 0.544200
vn 0.927300 0.326100 -0.183700
vn 0.190300 -0.223800 0.955900
vn 0.095700 0.968200 -0.231100
vn -0.374600 0.204800 0.904300
vn 0.303400 0.734500 -0.606900
vn -0.260500 -0.627200 -0.734000
vn 0.904900 0.201800 0.374800
vn 0.144400 -0.987700 0.059800
vn -0.214600 0.734500 0.643700
vn -0.703200 -0.627200 0.334800
vn 0.303400 -0.734500 -0.606900
vn -0.260500 0.627200 -0.734000
vn -0.214600 -0.734500 0.643700
vn -0.703200 0.627200 0.334800
vn 0.904900 -0.201800 0.374800
vn 0.144400 0.987700 0.059800
vn 0.643700 -0.734500 -0.214600
vn 0.334800 0.627200 -0.703200
vn -0.606900 -0.734500 0.303400
vn -0.734000 0.627200 -0.260500
vn 0.374800 -0.201800 0.904900
vn 0.059800 0.987700 0.144400
vn 0.643700 0.734500 -0.214600
vn 0.334800 -0.627200 -0.703200
vn 0.374800 0.201800 0.904900
vn 0.059800 -0.987700 0.144400
vn -0.606900 0.734500 0.303400
vn -0.734000 -0.627200 -0.260500
vn 0.606900 0.734500 0.303400
vn 0.734000 -0.627200 -0.260500
vn -0.374800 0.201800 0.904900
vn -0.059800 -0.987700 0.144400
vn -0.643700 0.734500 -0.214600
vn -0.334800 -0.627200 -0.703200
vn 0.606900 -0.734500 0.303400
vn 0.734000 0.627200 -0.260500
vn -0.643700 -0.734500 -0.214600
vn -0.334800 0.627200 -0.703200
vn -0.374800 -0.201800 0.904900
vn -0.059800 0.987700 0.144400
vn 0.214600 0.734500 0.643700
vn 0.703200 -0.627200 0.334800
vn -0.904900 0.201800 0.374800
vn -0.144400 -0.987700 0.059800
vn -0.303400 0.734500 -0.606900
vn 0.260500 -0.627200 -0.734000
vn 0.214600 -0.734500 0.643700
vn 0.703200 0.627200 0.334800
vn -0.303400 -0.734500 -0.606900
vn 0.260500 0.627200 -0.734000
vn -0.904900 -0.201800 0.374800
vn -0.144400 0.987700 0.059800
vn -0.303400 0.734500 0.606900
vn 0.260500 -0.627200 0.734000
vn -0.904900 0.201800 -0.374800
vn -0.144400 -0.987700 -0.059800
vn 0.214600 0.734500 -0.643700
vn 0.703200 -0.627200 -0.334800
vn -0.303400 -0.734500 0.606900
vn 0.260500 0.627200 0.734000
vn 0.214600 -0.734500 -0.643700
vn 0.703200 0.627200 -0.334800
vn -0.904900 -0.201800 -0.374800
vn -0.144400 0.987700 -0.059800
vn -0.643700 0.734500 0.214600
vn -0.334800 -0.627200 0.703200
vn -0.374800 0.201800 -0.904900
vn -0.059800 -0.987700 -0.144400
vn 0.606900 0.734500 -0.303400
vn 0.734000 -0.627200 0.260500
vn -0.643700 -0.734500 0.214600
vn -0.334800 0.627200 0.703200
vn 0.606900 -0.734500 -0.303400
vn 0.734000 0.627200 0.260500
vn -0.374800 -0.201800 -0.904900
vn -0.059800 0.987700 -0.144400
vn -0.606900 -0.734500 -0.303400
vn -0.734000 0.627200 0.260500
vn 0.643700 -0.734500 0.214600
vn 0.334800 0.627200 0.703200
vn 0.374800 -0.201800 -0.904900
vn 0.059800 0.987700 -0.144400
vn -0.606900 0.734500 -0.303400
vn -0.734000 -0.627200 0.260500
vn 0.374800 0.201800 -0.904900
vn 0.059800 -0.987700 -0.144400
vn 0.643700 0.734500 0.214600
vn 0.334800 -0.627200 0.703200
vn 0.183700 0.326100 -0.927300
vn -0.955900 -0.223800 -0.190300
vn 0.789900 -0.518600 -0.327200
vn -0.544200 -0.808100 0.225400
vn 0.785600 0.326100 0.525800
vn -0.541400 -0.223800 0.810500
vn 0.231100 0.968200 -0.095700
vn -0.904300 0.204800 0.374600
vn -0.214600 -0.734500 -0.643700
vn -0.703200 0.627200 -0.334800
vn 0.303400 -0.734500 0.606900
vn -0.260500 0.627200 0.734000
vn 0.904900 -0.201800 -0.374800
vn 0.144400 0.987700 -0.059800
vn -0.214600 0.734500 -0.643700
vn -0.703200 -0.627200 -0.334800
vn 0.904900 0.201800 -0.374800
vn 0.144400 -0.987700 -0.059800
vn 0.303400 0.734500 0.606900
vn -0.260500 -0.627200 0.734000
vn 0.183700 -0.326100 -0.927300
vn -0.955900 0.223800 -0.190300
vn 0.231100 -0.968200 -0.095700
vn -0.904300 -0.204800 0.374600
vn 0.785600 -0.326100 0.525800
vn -0.541400 0.223800 0.810500
vn 0.789900 0.518600 -0.327200
vn -0.544200 0.808100 0.225400
usemtl None
s off
f 53//1 54//1 1//1 3//1
f 54//2 53//2 4//2 2//2
f 54//3 55//3 9//3 1//3
f 55//4 54//4 2//4 10//4
f 55//5 56//5 11//5 9//5
f 56//6 55//6 10//6 12//6
f 56//7 53//7 3//7 11//7
f 53//8 56//8 12//8 4//8
f 57//9 58//9 3//9 5//9
f 58//10 57//10 6//10 4//10
f 58//11 59//11 11//11 3//11
f 59//12 58//12 4//12 12//12
f 59//13 60//13 13//13 11//13
f 60//14 59//14 12//14 14//14
f 60//15 57//15 5//15 13//15
f 57//16 60//16 14//16 6//16
f 61//17 62//17 9//17 11//17
f 62//18 61//18 12//18 10//18
f 62//19 63//19 15//19 9//19
f 63//20 62//20 10//20 16//20
f 63//21 64//21 17//21 15//21
f 64//22 63//22 16//22 18//22
f 64//23 61//23 11//23 17//23
f 61//24 64//24 18//24 12//24
f 65//25 66//25 11//25 13//25
f 66//26 65//26 14//26 12//26
f 66//27 67//27 17//27 11//27
f 67//28 66//28 12//28 18//28
f 67//29 68//29 19//29 17//29
f 68//30 67//30 18//30 20//30
f 68//31 65//31 13//31 19//31
f 65//32 68//32 20//32 14//32
f 69//33 70//33 15//33 17//33
f 70//34 69//34 18//34 16//34
f 70//35 71//35 21//35 15//35
f 71//36 70//36 16//36 22//36
f 71//37 72//37 23//37 21//37
f 72//38 71//38 22//38 24//38
f 72//39 69//39 17//39 23//39
f 69//40 72//40 24//40 18//40
f 73//41 74//41 17//41 19//41
f 74//42 73//42 20//42 18//42
f 74//43 75//43 23//43 17//43
f 75//44 74//44 18//44 24//44
f 75//45 76//45 25//45 23//45
f 76//46 75//46 24//46 26//46
f 76//47 73//47 19//47 25//47
f 73//48 76//48 26//48 20//48
f 77//49 78//49 21//49 23//49
f 78//50 77//50 24//50 22//50
f 78//51 79//51 27//51 21//51
f 79//52 78//52 22//52 28//52
f 79//53 80//53 29//53 27//53
f 80//54 79//54 28//54 30//54
f 80//55 77//55 23//55 29//55
f 77//56 80//56 30//56 24//56
f 81//57 82//57 23//57 25//57
f 82//58 81//58 26//58 24//58
f 82//59 83//59 29//59 23//59
f 83//60 82//60 24//60 30//60
f 83//61 84//61 31//61 29//61
f 84//62 83//62 30//62 32//62
f 84//63 81//63 25//63 31//63
f 81//64 84//64 32//64 26//64
f 85//65 86//65 27//65 29//65
f 86//66 85//66 30//66 28//66
f 86//67 87//67 33//67 27//67
f 87//68 86//68 28//68 34//68
f 87//69 88//69 35//69 33//69
f 88//70 87//70 34//70 36//70
f 88//71 85//71 29//71 35//71
f 85//72 88//72 36//72 30//72
f 89//73 90//73 29//73 31//73
f 90//74 89//74 32//74 30//74
f 90//75 91//75 35//75 29//75
f 91//76 90//76 30//76 36//76
f 91//77 92//77 37//77 35//77
f 92//78 91//78 36//78 38//78
f 92//79 89//79 31//79 37//79
f 89//80 92//80 38//80 32//80
f 93//81 94//81 33//81 35//81
f 94//82 93//82 36//82 34//82
f 94//83 95//83 39//83 33//83
f 95//84 94//84 34//84 40//84
f 95//85 96//85 41//85 39//85
f 96//86 95//86 40//86 42//86
f 96//87 93//87 35//87 41//87
f 93//88 96//88 42//88 36//88
f 97//89 98//89 35//89 37//89
f 98//90 97//90 38//90 36//90
f 98//91 99//91 41//91 35//91
f 99//92 98//92 36//92 42//92
f 99//93 100//93 43//93 41//93
f 100//94 99//94 42//94 44//94
f 100//95 97//95 37//95 43//95
f 97//96 100//96 44//96 38//96
f 101//97 102//97 39//97 41//97
f 102//98 101//98 42//98 40//98
f 102//99 103//99 47//99 39//99
f 103//100 102//100 40//100 48//100
f 103//101 104//101 49//101 47//101
f 104//102 103//102 48//102 50//102
f 104//103 101//103 41//103 49//103
f 101//104 104//104 50//104 42//104
f 105//105 106//105 41//105 43//105
f 106//106 105//106 44//106 42//106
f 106//107 107//107 49//107 41//107
f 107//108 106//108 42//108 50//108
f 107//109 108//109 51//109 49//109
f 108//110 107//110 50//110 52//110
f 108//111 105//111 43//111 51//111
f 105//112 108//112 52//112 44//112
f 109//113 110//113 5//113 7//113
f 110//114 109//114 8//114 6//114
f 110//115 111//115 13//115 5//115
f 111//116 110//116 6//116 14//116
f 111//117 109//117 7//117 13//117
f 109//118 111//118 14//118 8//118
f 112//119 113//119 45//119 1//119
f 113//120 112//120 2//120 46//120
f 113//121 114//121 9//121 45//121
f 114//122 113//122 46//122 10//122
f 114//123 112//123 1//123 9//123
f 112//124 114//124 10//124 2//124
f 115//125 116//125 45//125 9//125
f 116//126 115//126 10//126 46//126
f 116//127 117//127 15//127 45//127
f 117//128 116//128 46//128 16//128
f 117//129 115//129 9//129 15//129
f 115//130 117//130 16//130 10//130
f 118//131 119//131 13//131 7//131
f 119//132 118//132 8//132 14//132
f 119//133 120//133 19//133 13//133
f 120//134 119//134 14//134 20//134
f 120//135 118//135 7//135 19//135
f 118//136 120//136 20//136 8//136
f 121//137 122//137 19//137 7//137
f 122//138 121//138 8//138 20//138
f 122//139 123//139 25//139 19//139
f 123//140 122//140 20//140 26//140
f 123//141 121//141 7//141 25//141
f 121//142 123//142 26//142 8//142
f 124//143 125//143 45//143 15//143
f 125//144 124//144 16//144 46//144
f 125//145 126//145 21//145 45//145
f 126//146 125//146 46//146 22//146
f 126//147 124//147 15//147 21//147
f 124//148 126//148 22//148 16//148
f 127//149 128//149 25//149 7//149
f 128//150 127//150 8//150 26//150
f 128//151 129//151 31//151 25//151
f 129//152 128//152 26//152 32//152
f 129//153 127//153 7//153 31//153
f 127//154 129//154 32//154 8//154
f 130//155 131//155 45//155 21//155
f 131//156 130//156 22//156 46//156
f 131//157 132//157 27//157 45//157
f 132//158 131//158 46//158 28//158
f 132//159 130//159 21//159 27//159
f 130//160 132//160 28//160 22//160
f 133//161 134//161 31//161 7//161
f 134//162 133//162 8//162 32//162
f 134//163 135//163 37//163 31//163
f 135//164 134//164 32//164 38//164
f 135//165 133//165 7//165 37//165
f 133//166 135//166 38//166 8//166
f 136//167 137//167 45//167 27//167
f 137//168 136//168 28//168 46//168
f 137//169 138//169 33//169 45//169
f 138//170 137//170 46//170 34//170
f 138//171 136//171 27//171 33//171
f 136//172 138//172 34//172 28//172
f 139//173 140//173 37//173 7//173
f 140//174 139//174 8//174 38//174
f 140//175 141//175 43//175 37//175
f 141//176 140//176 38//176 44//176
f 141//177 139//177 7//177 43//177
f 139//178 141//178 44//178 8//178
f 142//179 143//179 45//179 33//179
f 143//180 142//180 34//180 46//180
f 143//181 144//181 39//181 45//181
f 144//182 143//182 46//182 40//182
f 144//183 142//183 33//183 39//183
f 142//184 144//184 40//184 34//184
f 145//185 146//185 45//185 39//185
f 146//186 145//186 40//186 46//186
f 146//187 147//187 47//187 45//187
f 147//188 146//188 46//188 48//188
f 147//189 145//189 39//189 47//189
f 145//190 147//190 48//190 40//190
f 148//191 149//191 43//191 7//191
f 149//192 148//192 8//192 44//192
f 149//193 150//193 51//193 43//193
f 150//194 149//194 44//194 52//194
f 150//195 148//195 7//195 51//195
f 148//196 150//196 52//196 8//196
f 151//197 152//197 49//197 51//197
f 152//198 151//198 52//198 50//198
f 152//199 153//199 3//199 49//199
f 153//200 152//200 50//200 4//200
f 153//201 154//201 5//201 3//201
f 154//202 153//202 4//202 6//202
f 154//203 151//203 51//203 5//203
f 151//204 154//204 6//204 52//204
f 155//205 156//205 45//205 47//205
f 156//206 155//206 48//206 46//206
f 156//207 157//207 1//207 45//207
f 157//208 156//208 46//208 2//208
f 157//209 155//209 47//209 1//209
f 155//210 157//210 2//210 48//210
f 158//211 159//211 51//211 7//211
f 159//212 158//212 8//212 52//212
f 159//213 160//213 5//213 51//213
f 160//214 159//214 52//214 6//214
f 160//215 158//215 7//215 5//215
f 158//216 160//216 6//216 8//216
f 161//217 162//217 47//217 49//217
f 162//218 161//218 50//218 48//218
f 162//219 163//219 1//219 47//219
f 163//220 162//220 48//220 2//220
f 163//221 164//221 3//221 1//221
f 164//222 163//222 2//222 4//222
f 164//223 161//223 49//223 3//223
f 161//224 164//224 4//224 50//224
